<svg width="48" height="47" viewBox="0 0 48 47" fill="none" xmlns="http://www.w3.org/2000/svg">
<path d="M32.2588 34.8095C31.3495 37.6441 28.1669 42.2837 25.3993 44.8455C22.6316 47.4074 20.5757 45.524 22.8752 42.8311C26.8565 38.1687 27.9795 36.5667 28.4019 35.6796C29.46 33.4572 27.3256 32.4471 26.1953 32.5791L21.7656 32.8863C17.7598 33.144 18.3068 27.6232 21.9307 26.9902L25.7877 26.1203C29.0597 25.2346 26.9105 25.3596 25.8719 25.271L18.5593 25.0752C15.0195 24.8588 15.3561 21.4614 18.6403 20.0286C20.3002 19.485 24.8742 17.5798 29.7226 16.0064C34.571 14.433 30.6966 14.6335 29.425 14.7819L10.6903 17.8084C7.72339 18.1552 8.25089 14.9454 10.1791 14.5099C24.8097 10.6193 32.5378 10.8505 34.573 11.4525C39.8732 12.9331 36.5695 16.6768 33.7512 17.6354L25.0631 20.748C24.265 21.051 23.0841 21.6926 24.746 21.8344C26.4078 21.9762 28.0809 22.0048 28.7097 22.0014C33.5942 23.446 29.4343 27.3736 27.9297 27.7592C26.4111 28.2863 24.052 29.2613 26.7648 28.9446C30.1558 28.5487 33.3014 31.5595 32.2588 34.8095Z" fill="#C4C4C4"/>
</svg>
