<svg width="32" height="34" viewBox="0 0 32 34" fill="none" xmlns="http://www.w3.org/2000/svg">
<path d="M18.2595 18.4839C28.9084 13.6586 31.313 21.2411 31.313 23.309L32 30.5469C32 35.3721 27.1908 34.3381 26.5038 32.2702L25.1297 23.6537C25.1297 22.5508 24.2137 22.7346 23.7557 22.9644L18.603 25.0323C15.3052 26.6867 13.5648 24.8026 13.1067 23.6537L12.0762 15.3819L5.54945 17.1052C2.80134 17.7945 1.7708 16.5307 1.42728 15.3819L0.0532291 3.31884C-0.633764 -1.16179 5.54989 -0.817219 5.89296 2.62952L6.9235 10.5567L13.7938 8.48873C16.8858 7.4546 17.8416 9.3349 17.9159 10.9013C18.0304 13.314 18.2595 18.2081 18.2595 18.4839Z" fill="#C4C4C4"/>
</svg>
