<svg width="46" height="33" viewBox="0 0 46 33" fill="none" xmlns="http://www.w3.org/2000/svg">
<path d="M42.8198 29.0456C46.0721 28.1544 46.4617 30.1596 45.6148 30.7165C39.5167 34.7268 33.334 32.5732 31.132 30.9022C30.3697 30.3453 27.5695 28.0966 24.5258 16.2349C21.4767 4.35244 14.2777 11.3457 11.8215 16.2349C11.6765 16.5235 7.24767 24.5896 1.91184 21.0621C-0.629355 19.3821 -0.375101 12.3359 1.14969 8.994C3.08801 4.74575 4.36834 3.48601 7.24798 1.0105C9.53475 -1.0318 12.1815 0.407052 10.551 1.93881C6.28237 5.94911 4.62209 9.11777 4.19861 10.108C3.18199 12.8929 3.38226 17.0051 3.69044 17.9058C4.4527 20.1338 6.03632 19.6414 7.24799 18.0915C8.26398 16.7918 7.56607 15.5808 12.5838 10.4793C18.4274 4.53809 25.5421 8.80833 26.8125 13.2642C27.3323 15.0872 29.2686 22.3617 30.6237 25.3323C35.7055 32.5732 38.7545 30.1596 42.8198 29.0456Z" fill="#C4C4C4"/>
</svg>
