<svg width="115" height="23" viewBox="0 0 115 23" fill="none" xmlns="http://www.w3.org/2000/svg">
<path d="M27.5307 9.48973C16.5 25.5446 5.50051 10.9899 4.00025 9.48973C2.50054 7.48973 1.97887e-05 9 1.00018 11.0318C3.49995 15.0638 16.5 29.5 30.3355 11.0318C36.9813 2.16079 47.5 2.5 52.0002 9C57.1728 16.4711 70.1961 33.7393 87.2317 10.0038C98.0003 -5 110.471 8.97567 112.474 11.0318C114.478 13.088 116.081 10.5178 114.077 7.94757C112.074 5.37737 96.0465 -9.01594 83.2248 9.48973C70.4032 27.9954 60.3084 15.7107 55.5002 8C52.0002 1.5 37.1809 -4.55587 27.5307 9.48973Z" fill="#C4C4C4"/>
</svg>
